<svg width="161" height="110" viewBox="0 0 161 110" fill="none" xmlns="http://www.w3.org/2000/svg">
<path d="M147.477 10H13.4766V101L147.477 10Z" stroke="black" stroke-width="1.5"/>
<path d="M156.312 15.1367C155.537 15.1367 154.881 14.9795 154.343 14.665C153.81 14.346 153.404 13.8971 153.126 13.3184C152.848 12.7396 152.709 12.0537 152.709 11.2607C152.709 10.6592 152.777 10.0531 152.914 9.44238C153.055 8.83171 153.267 8.25293 153.55 7.70605C153.832 7.15462 154.188 6.66699 154.616 6.24316C155.045 5.81478 155.546 5.47754 156.12 5.23145C156.699 4.98079 157.353 4.85547 158.082 4.85547C158.638 4.85547 159.123 4.90788 159.538 5.0127C159.957 5.11751 160.365 5.27702 160.762 5.49121L160.126 6.82422C159.834 6.66016 159.524 6.52344 159.196 6.41406C158.868 6.30469 158.497 6.25 158.082 6.25C157.576 6.25 157.123 6.3457 156.722 6.53711C156.325 6.72852 155.979 6.99056 155.683 7.32324C155.391 7.65592 155.149 8.03646 154.958 8.46484C154.767 8.88867 154.623 9.33529 154.527 9.80469C154.432 10.2695 154.384 10.7321 154.384 11.1924C154.384 12.0081 154.573 12.637 154.951 13.0791C155.329 13.5166 155.885 13.7354 156.619 13.7354C157.007 13.7354 157.389 13.6921 157.768 13.6055C158.15 13.5189 158.526 13.4072 158.896 13.2705V14.665C158.576 14.7835 158.205 14.8929 157.781 14.9932C157.362 15.0889 156.872 15.1367 156.312 15.1367Z" fill="black"/>
<path d="M0 106L5.35938 96.0059H7.23926L8.37402 106H6.78809L6.50781 103.218H3.16504L1.72949 106H0ZM3.86914 101.81H6.39844L6.17285 99.3555C6.15007 99.0501 6.125 98.7288 6.09766 98.3916C6.07031 98.0498 6.05664 97.7262 6.05664 97.4209H6.01562C5.90169 97.7171 5.76953 98.0247 5.61914 98.3438C5.46875 98.6582 5.30697 98.9818 5.13379 99.3145L3.86914 101.81Z" fill="black"/>
<path d="M1.18262 15L3.29492 5.00586H6.04297C6.67188 5.00586 7.21419 5.08333 7.66992 5.23828C8.12565 5.39323 8.47656 5.63477 8.72266 5.96289C8.97331 6.29102 9.09863 6.7194 9.09863 7.24805C9.09863 7.69922 9.00749 8.10026 8.8252 8.45117C8.64746 8.79753 8.39225 9.08464 8.05957 9.3125C7.73145 9.53581 7.33724 9.69303 6.87695 9.78418V9.8457C7.33724 9.96875 7.71094 10.1966 7.99805 10.5293C8.28516 10.8574 8.42871 11.2858 8.42871 11.8145C8.42871 12.5345 8.25781 13.1315 7.91602 13.6055C7.57878 14.0749 7.11621 14.4258 6.52832 14.6582C5.94499 14.8861 5.27962 15 4.53223 15H1.18262ZM3.08984 13.626H4.62109C5.05859 13.626 5.43685 13.5576 5.75586 13.4209C6.07943 13.2842 6.3278 13.0814 6.50098 12.8125C6.67871 12.5436 6.76758 12.2132 6.76758 11.8213C6.76758 11.4066 6.6377 11.0739 6.37793 10.8232C6.12272 10.5726 5.71257 10.4473 5.14746 10.4473H3.7666L3.08984 13.626ZM4.04004 9.12793H5.40723C5.7946 9.12793 6.13867 9.07324 6.43945 8.96387C6.74479 8.84993 6.98405 8.67676 7.15723 8.44434C7.33496 8.20736 7.42383 7.90658 7.42383 7.54199C7.42383 7.15918 7.30078 6.86751 7.05469 6.66699C6.81315 6.46647 6.42578 6.36621 5.89258 6.36621H4.62793L4.04004 9.12793Z" fill="black"/>
</svg>
