<svg width="173" height="258" viewBox="0 0 173 258" fill="none" xmlns="http://www.w3.org/2000/svg">
<rect x="48.2266" y="20" width="111" height="185" fill="#BBBDC0" stroke="black" stroke-width="1.5" stroke-linejoin="round" stroke-dasharray="2 2"/>
<path d="M48.2266 205H159.227L122.227 241H11.2266L48.2266 205Z" fill="#BBBDC0" stroke="black" stroke-width="1.5" stroke-linejoin="round" stroke-dasharray="2 2"/>
<path d="M48.2266 20L11.2266 56V205V241L48.2266 205V20Z" fill="#BBBDC0" stroke="black" stroke-width="1.5" stroke-linejoin="round" stroke-dasharray="2 2"/>
<path d="M159.227 20L122.227 56V205V241L159.227 205V20Z" stroke="black" stroke-width="1.5" stroke-linejoin="round"/>
<path d="M48.2266 20H159.227L122.227 56H11.2266L48.2266 20Z" stroke="black" stroke-width="1.5" stroke-linejoin="round"/>
<rect x="11.2266" y="56" width="111" height="185" stroke="black" stroke-width="1.5" stroke-linejoin="round"/>
<circle cx="11.2266" cy="241" r="3" fill="black"/>
<path d="M3.75 257L9.10938 247.006H10.9893L12.124 257H10.5381L10.2578 254.218H6.91504L5.47949 257H3.75ZM7.61914 252.81H10.1484L9.92285 250.355C9.90007 250.05 9.875 249.729 9.84766 249.392C9.82031 249.05 9.80664 248.726 9.80664 248.421H9.76562C9.65169 248.717 9.51953 249.025 9.36914 249.344C9.21875 249.658 9.05697 249.982 8.88379 250.314L7.61914 252.81Z" fill="black"/>
<circle cx="122.227" cy="241" r="3" fill="black"/>
<path d="M121.995 257L124.107 247.006H126.623C127.844 247.006 128.795 247.332 129.474 247.983C130.153 248.631 130.492 249.599 130.492 250.889C130.492 251.609 130.41 252.281 130.246 252.905C130.087 253.53 129.85 254.095 129.535 254.601C129.221 255.102 128.831 255.533 128.366 255.893C127.901 256.248 127.366 256.521 126.76 256.713C126.154 256.904 125.481 257 124.743 257H121.995ZM123.902 255.626H124.825C125.354 255.626 125.83 255.546 126.254 255.387C126.682 255.227 127.056 255.004 127.375 254.717C127.694 254.425 127.961 254.083 128.175 253.691C128.389 253.299 128.549 252.871 128.653 252.406C128.763 251.937 128.817 251.447 128.817 250.937C128.817 250.048 128.603 249.398 128.175 248.988C127.751 248.574 127.177 248.366 126.452 248.366H125.44L123.902 255.626Z" fill="black"/>
<circle cx="159.227" cy="205" r="3" fill="black"/>
<path d="M164.062 221.137C163.287 221.137 162.631 220.979 162.093 220.665C161.56 220.346 161.154 219.897 160.876 219.318C160.598 218.74 160.459 218.054 160.459 217.261C160.459 216.659 160.527 216.053 160.664 215.442C160.805 214.832 161.017 214.253 161.3 213.706C161.582 213.155 161.938 212.667 162.366 212.243C162.795 211.815 163.296 211.478 163.87 211.231C164.449 210.981 165.103 210.855 165.832 210.855C166.388 210.855 166.873 210.908 167.288 211.013C167.707 211.118 168.115 211.277 168.512 211.491L167.876 212.824C167.584 212.66 167.274 212.523 166.946 212.414C166.618 212.305 166.247 212.25 165.832 212.25C165.326 212.25 164.873 212.346 164.472 212.537C164.075 212.729 163.729 212.991 163.433 213.323C163.141 213.656 162.899 214.036 162.708 214.465C162.517 214.889 162.373 215.335 162.277 215.805C162.182 216.27 162.134 216.732 162.134 217.192C162.134 218.008 162.323 218.637 162.701 219.079C163.079 219.517 163.635 219.735 164.369 219.735C164.757 219.735 165.139 219.692 165.518 219.605C165.9 219.519 166.276 219.407 166.646 219.271V220.665C166.326 220.784 165.955 220.893 165.531 220.993C165.112 221.089 164.622 221.137 164.062 221.137Z" fill="black"/>
<circle cx="122.227" cy="56" r="3" fill="black"/>
<path d="M127.879 63L129.991 53.0059H131.611L130.743 57.0938H134.64L135.501 53.0059H137.114L135.002 63H133.382L134.339 58.4883H130.449L129.492 63H127.879Z" fill="black"/>
<circle cx="11.2266" cy="56" r="3" fill="black"/>
<path d="M0 55L2.1123 45.0059H7.4375L7.14355 46.3867H3.43848L2.86426 49.1006H6.33008L6.04297 50.4746H2.57715L1.90723 53.6123H5.6123L5.31836 55H0Z" fill="black"/>
<circle cx="48.2266" cy="205" r="3" fill="black"/>
<path d="M36.9326 204L39.0449 194.006H41.793C42.4219 194.006 42.9642 194.083 43.4199 194.238C43.8757 194.393 44.2266 194.635 44.4727 194.963C44.7233 195.291 44.8486 195.719 44.8486 196.248C44.8486 196.699 44.7575 197.1 44.5752 197.451C44.3975 197.798 44.1423 198.085 43.8096 198.312C43.4814 198.536 43.0872 198.693 42.627 198.784V198.846C43.0872 198.969 43.4609 199.197 43.748 199.529C44.0352 199.857 44.1787 200.286 44.1787 200.814C44.1787 201.535 44.0078 202.132 43.666 202.605C43.3288 203.075 42.8662 203.426 42.2783 203.658C41.695 203.886 41.0296 204 40.2822 204H36.9326ZM38.8398 202.626H40.3711C40.8086 202.626 41.1868 202.558 41.5059 202.421C41.8294 202.284 42.0778 202.081 42.251 201.812C42.4287 201.544 42.5176 201.213 42.5176 200.821C42.5176 200.407 42.3877 200.074 42.1279 199.823C41.8727 199.573 41.4626 199.447 40.8975 199.447H39.5166L38.8398 202.626ZM39.79 198.128H41.1572C41.5446 198.128 41.8887 198.073 42.1895 197.964C42.4948 197.85 42.734 197.677 42.9072 197.444C43.085 197.207 43.1738 196.907 43.1738 196.542C43.1738 196.159 43.0508 195.868 42.8047 195.667C42.5632 195.466 42.1758 195.366 41.6426 195.366H40.3779L39.79 198.128Z" fill="black"/>
<circle cx="48.2266" cy="132" r="3" fill="black"/>
<path d="M33.5098 138L37.5293 132.743L35.8203 128.006H37.4951L38.7188 131.725L41.4873 128.006H43.292L39.5322 132.866L41.4053 138H39.6621L38.3359 133.946L35.3145 138H33.5098Z" fill="black"/>
<circle cx="159.227" cy="78" r="3" fill="black"/>
<path d="M165.586 84L166.399 80.2061L164.766 74.0059H166.406L167.473 78.5723L170.439 74.0059H172.265L167.999 80.2266L167.206 84H165.586Z" fill="black"/>
<circle cx="48.2266" cy="20" r="3" fill="black"/>
<path d="M40.1709 15L42.2832 5.00586H47.5947L47.3076 6.38672H43.6094L42.9531 9.51074H46.4053L46.1045 10.8916H42.6523L41.7842 15H40.1709Z" fill="black"/>
<circle cx="159.227" cy="20" r="3" fill="black"/>
<path d="M166.09 16.1367C164.919 16.1367 164.005 15.8063 163.349 15.1455C162.692 14.4801 162.364 13.5322 162.364 12.3018C162.364 11.5954 162.446 10.9209 162.61 10.2783C162.774 9.63118 163.014 9.03874 163.328 8.50098C163.643 7.96322 164.028 7.49609 164.483 7.09961C164.944 6.70312 165.465 6.39779 166.049 6.18359C166.637 5.96484 167.282 5.85547 167.983 5.85547C168.539 5.85547 169.043 5.91016 169.494 6.01953C169.95 6.12435 170.394 6.2793 170.827 6.48438L170.212 7.85156C169.87 7.67839 169.512 7.53711 169.139 7.42773C168.765 7.31836 168.362 7.26367 167.929 7.26367C167.327 7.26367 166.787 7.39583 166.309 7.66016C165.83 7.91992 165.42 8.27767 165.078 8.7334C164.741 9.18913 164.483 9.71322 164.306 10.3057C164.128 10.8981 164.039 11.5247 164.039 12.1855C164.039 12.7051 164.121 13.1562 164.285 13.5391C164.449 13.9219 164.704 14.2181 165.051 14.4277C165.397 14.6328 165.837 14.7354 166.37 14.7354C166.671 14.7354 166.942 14.7148 167.184 14.6738C167.43 14.6283 167.658 14.5758 167.867 14.5166L168.428 11.9668H166.486L166.787 10.5791H170.314L169.234 15.6035C168.797 15.7585 168.33 15.8861 167.833 15.9863C167.341 16.0866 166.76 16.1367 166.09 16.1367Z" fill="black"/>
</svg>
