<svg width="137" height="68" viewBox="0 0 137 68" fill="none" xmlns="http://www.w3.org/2000/svg">
<path d="M9 33.333L61 12L128.666 33.333L62.317 56.884L9 33.333Z" stroke="#1A1A18" stroke-width="0.72" stroke-linejoin="round"/>
<path d="M4.83203 36L4.12891 34.1875H1.83984L1.14062 36H0.46875L2.70312 30.2656H3.30078L5.51953 36H4.83203ZM3.92969 33.5977L3.26172 31.7969C3.24609 31.75 3.22005 31.6732 3.18359 31.5664C3.14974 31.4596 3.11458 31.349 3.07812 31.2344C3.04167 31.1198 3.01172 31.0273 2.98828 30.957C2.96224 31.0638 2.93359 31.1706 2.90234 31.2773C2.8737 31.3815 2.84505 31.4792 2.81641 31.5703C2.78776 31.6589 2.76302 31.7344 2.74219 31.7969L2.0625 33.5977H3.92969Z" fill="black"/>
<path d="M59.1953 3.28906H60.8125C61.526 3.28906 62.0625 3.39583 62.4219 3.60938C62.7812 3.82292 62.9609 4.1862 62.9609 4.69922C62.9609 4.92057 62.918 5.11979 62.832 5.29688C62.7487 5.47135 62.6263 5.61589 62.4648 5.73047C62.3034 5.84505 62.1042 5.92448 61.8672 5.96875V6.00781C62.1172 6.04688 62.3385 6.11849 62.5312 6.22266C62.724 6.32682 62.875 6.47266 62.9844 6.66016C63.0938 6.84766 63.1484 7.08594 63.1484 7.375C63.1484 7.72656 63.0664 8.02344 62.9023 8.26562C62.7409 8.50781 62.5117 8.69141 62.2148 8.81641C61.918 8.9388 61.5664 9 61.1602 9H59.1953V3.28906ZM59.8594 5.73828H60.9531C61.4505 5.73828 61.7943 5.65625 61.9844 5.49219C62.1771 5.32812 62.2734 5.08854 62.2734 4.77344C62.2734 4.44792 62.1589 4.21354 61.9297 4.07031C61.7031 3.92708 61.3411 3.85547 60.8438 3.85547H59.8594V5.73828ZM59.8594 6.29688V8.43359H61.0469C61.5547 8.43359 61.9141 8.33464 62.125 8.13672C62.3359 7.9362 62.4414 7.66667 62.4414 7.32812C62.4414 7.11198 62.3932 6.92708 62.2969 6.77344C62.2031 6.61979 62.0495 6.5026 61.8359 6.42188C61.625 6.33854 61.3424 6.29688 60.9883 6.29688H59.8594Z" fill="black"/>
<path d="M62.7031 60.793C62.388 60.793 62.1042 60.8477 61.8516 60.957C61.6016 61.0638 61.388 61.2201 61.2109 61.4258C61.0365 61.6289 60.9023 61.875 60.8086 62.1641C60.7148 62.4531 60.668 62.7786 60.668 63.1406C60.668 63.6198 60.7422 64.0365 60.8906 64.3906C61.0417 64.7422 61.2656 65.0143 61.5625 65.207C61.862 65.3997 62.2357 65.4961 62.6836 65.4961C62.9388 65.4961 63.1784 65.4753 63.4023 65.4336C63.6289 65.3893 63.849 65.3346 64.0625 65.2695V65.8477C63.8542 65.9258 63.6354 65.9831 63.4062 66.0195C63.1771 66.0586 62.9049 66.0781 62.5898 66.0781C62.0091 66.0781 61.5234 65.9583 61.1328 65.7188C60.7448 65.4766 60.4531 65.1354 60.2578 64.6953C60.0651 64.2552 59.9688 63.7357 59.9688 63.1367C59.9688 62.7044 60.0286 62.3099 60.1484 61.9531C60.2708 61.5938 60.4479 61.2839 60.6797 61.0234C60.9141 60.763 61.2005 60.5625 61.5391 60.4219C61.8802 60.2786 62.2708 60.207 62.7109 60.207C63 60.207 63.2786 60.2357 63.5469 60.293C63.8151 60.3503 64.0573 60.4323 64.2734 60.5391L64.0078 61.1016C63.8255 61.0182 63.625 60.9466 63.4062 60.8867C63.1901 60.8242 62.9557 60.793 62.7031 60.793Z" fill="black"/>
<path d="M136.781 36H136.027L134.484 33.4844L132.918 36H132.211L134.113 33.0234L132.344 30.2891H133.082L134.508 32.5664L135.941 30.2891H136.645L134.879 33.0117L136.781 36Z" fill="black"/>
</svg>
