<svg width="155" height="34" viewBox="0 0 155 34" fill="none" xmlns="http://www.w3.org/2000/svg">
<rect x="0.360001" y="0.360001" width="64.72" height="32.72" rx="4.36" fill="#DBD184" stroke="black" stroke-width="0.72"/>
<line x1="0.72" y1="-0.72" x2="27.28" y2="-0.72" transform="matrix(-3.74669e-08 1 1 3.74669e-08 33.72 2.72)" stroke="black" stroke-width="1.44" stroke-linecap="round"/>
<circle cx="17.22" cy="17.22" r="2.5" fill="black"/>
<circle cx="40.22" cy="7.22" r="2.5" fill="black"/>
<circle cx="40.22" cy="26.22" r="2.5" fill="black"/>
<circle cx="58.22" cy="26.22" r="2.5" fill="black"/>
<circle cx="58.22" cy="7.22" r="2.5" fill="black"/>
<rect x="0.36" y="-0.36" width="64.72" height="32.72" rx="4.36" transform="matrix(-1 0 0 1 154.44 0.720001)" fill="#DBD184" stroke="black" stroke-width="0.72"/>
<line x1="121.44" y1="3.44" x2="121.44" y2="30" stroke="black" stroke-width="1.44" stroke-linecap="round"/>
<circle cx="2.5" cy="2.5" r="2.5" transform="matrix(-1 0 0 1 139.72 14.72)" fill="black"/>
<circle cx="2.5" cy="2.5" r="2.5" transform="matrix(-1 0 0 1 116.72 4.72)" fill="black"/>
<circle cx="2.5" cy="2.5" r="2.5" transform="matrix(-1 0 0 1 116.72 23.72)" fill="black"/>
<circle cx="2.5" cy="2.5" r="2.5" transform="matrix(-1 0 0 1 98.72 23.72)" fill="black"/>
<circle cx="2.5" cy="2.5" r="2.5" transform="matrix(-1 0 0 1 98.72 4.72)" fill="black"/>
<path d="M74.2356 16.9915V15.72H80.054V16.9915H74.2356ZM74.2356 19.2708V17.9876H80.054V19.2708H74.2356Z" fill="black"/>
</svg>
