<svg width="73" height="79" viewBox="0 0 73 79" fill="none" xmlns="http://www.w3.org/2000/svg">
<path d="M20.901 55.774H28.3612V48.315H20.901V55.774Z" stroke="#1A1A18" stroke-width="0.72"/>
<path d="M50.775 55.774L50.723 55.722V55.774H50.775Z" stroke="#1A1A18" stroke-width="0.72"/>
<path d="M28.362 55.774H35.803V48.315H28.362V55.774Z" stroke="#1A1A18" stroke-width="0.72"/>
<path d="M13.46 63.216H20.901V55.7742H13.46V63.216Z" stroke="#1A1A18" stroke-width="0.72"/>
<path d="M43.263 55.774H50.723V55.722L43.315 48.315H43.263V55.774Z" stroke="#1A1A18" stroke-width="0.72"/>
<path d="M13.46 18.46V18.511H13.511L13.46 18.46Z" stroke="#1A1A18" stroke-width="0.72"/>
<path d="M13.46 40.872H20.901V33.413H13.46V40.872Z" stroke="#1A1A18" stroke-width="0.72"/>
<path d="M20.901 25.901L13.511 18.512H13.46V25.953H20.901V25.901Z" stroke="#1A1A18" stroke-width="0.72"/>
<path d="M13.46 33.413H20.901V25.9529H13.46V33.413Z" stroke="#1A1A18" stroke-width="0.72"/>
<path d="M13.46 55.774H20.901V48.315H13.46V55.774Z" stroke="#1A1A18" stroke-width="0.72"/>
<path d="M13.46 48.314H20.901V40.8722H13.46V48.314Z" stroke="#1A1A18" stroke-width="0.72"/>
<path d="M35.803 55.774H43.2628V48.315H35.803V55.774Z" stroke="#1A1A18" stroke-width="0.72"/>
<path d="M28.414 33.413L28.362 33.361V33.413H28.414Z" stroke="#1A1A18" stroke-width="0.72"/>
<path d="M28.362 40.872H35.803V40.802L28.414 33.413H28.362V40.872Z" stroke="#1A1A18" stroke-width="0.72"/>
<path d="M35.803 48.315H43.263V48.262L35.873 40.873H35.803V48.315Z" stroke="#1A1A18" stroke-width="0.72"/>
<path d="M28.362 48.314H35.803V40.8722H28.362V48.314Z" stroke="#1A1A18" stroke-width="0.72"/>
<path d="M35.873 40.872L35.803 40.802V40.872H35.873Z" stroke="#1A1A18" stroke-width="0.72"/>
<path d="M43.315 48.315L43.263 48.262V48.315H43.315Z" stroke="#1A1A18" stroke-width="0.72"/>
<path d="M20.953 25.953L20.901 25.901V25.953H20.953Z" stroke="#1A1A18" stroke-width="0.72"/>
<path d="M20.902 48.314H28.3618V40.8722H20.902V48.314Z" stroke="#1A1A18" stroke-width="0.72"/>
<path d="M20.901 33.413H28.361V33.361L20.953 25.953H20.901V33.413Z" stroke="#1A1A18" stroke-width="0.72"/>
<path d="M20.902 40.872H28.3618V33.413H20.902V40.872Z" stroke="#1A1A18" stroke-width="0.72"/>
<path d="M28.362 70.674H35.803V63.2158H28.362V70.674Z" stroke="#1A1A18" stroke-width="0.72"/>
<path d="M20.901 70.674H28.3612V63.2158H20.901V70.674Z" stroke="#1A1A18" stroke-width="0.72"/>
<path d="M35.803 70.674H43.2628V63.2158H35.803V70.674Z" stroke="#1A1A18" stroke-width="0.72"/>
<path d="M43.263 70.674H50.7232V63.2158H43.263V70.674Z" stroke="#1A1A18" stroke-width="0.72"/>
<path d="M13.46 70.674H20.901V63.2158H13.46V70.674Z" stroke="#1A1A18" stroke-width="0.72"/>
<path d="M50.723 70.674H58.1636V63.2158H50.723V70.674Z" stroke="#1A1A18" stroke-width="0.72"/>
<path d="M20.901 63.216H28.3612V55.7742H20.901V63.216Z" stroke="#1A1A18" stroke-width="0.72"/>
<path d="M6 48.314H13.4598V40.8722H6V48.314Z" stroke="#1A1A18" stroke-width="0.72"/>
<path d="M6 40.872H13.4598V33.413H6V40.872Z" stroke="#1A1A18" stroke-width="0.72"/>
<path d="M6 55.774H13.4598V48.315H6V55.774Z" stroke="#1A1A18" stroke-width="0.72"/>
<path d="M58.217 63.216H58.164V70.674H65.623V70.622L58.217 63.216Z" stroke="#1A1A18" stroke-width="0.72"/>
<path d="M6 70.674H13.4598V63.2158H6V70.674Z" stroke="#1A1A18" stroke-width="0.72"/>
<path d="M65.675 70.674L65.623 70.622V70.674H65.675Z" stroke="#1A1A18" stroke-width="0.72"/>
<path d="M6 33.413H13.4598V25.9529H6V33.413Z" stroke="#1A1A18" stroke-width="0.72"/>
<path d="M6 63.216H13.4598V55.7742H6V63.216Z" stroke="#1A1A18" stroke-width="0.72"/>
<path d="M35.803 63.216H43.2628V55.7742H35.803V63.216Z" stroke="#1A1A18" stroke-width="0.72"/>
<path d="M58.164 63.216H58.217L58.164 63.163V63.216Z" stroke="#1A1A18" stroke-width="0.72"/>
<path d="M28.362 63.216H35.803V55.7742H28.362V63.216Z" stroke="#1A1A18" stroke-width="0.72"/>
<path d="M50.775 55.774H50.723V63.215H58.165V63.163L50.775 55.774Z" stroke="#1A1A18" stroke-width="0.72"/>
<path d="M43.263 63.216H50.7232V55.7742H43.263V63.216Z" stroke="#1A1A18" stroke-width="0.72"/>
<path d="M6 25.952H13.4598V18.5114H6V25.952Z" stroke="#1A1A18" stroke-width="0.72"/>
<path d="M6 11V11.051H6.051L6 11Z" stroke="#1A1A18" stroke-width="0.72"/>
<path d="M13.46 18.46L6.051 11.051H6V18.511H13.46V18.46Z" stroke="#1A1A18" stroke-width="0.72"/>
<path d="M70.7031 71.793C70.388 71.793 70.1042 71.8477 69.8516 71.957C69.6016 72.0638 69.388 72.2201 69.2109 72.4258C69.0365 72.6289 68.9023 72.875 68.8086 73.1641C68.7148 73.4531 68.668 73.7786 68.668 74.1406C68.668 74.6198 68.7422 75.0365 68.8906 75.3906C69.0417 75.7422 69.2656 76.0143 69.5625 76.207C69.862 76.3997 70.2357 76.4961 70.6836 76.4961C70.9388 76.4961 71.1784 76.4753 71.4023 76.4336C71.6289 76.3893 71.849 76.3346 72.0625 76.2695V76.8477C71.8542 76.9258 71.6354 76.9831 71.4062 77.0195C71.1771 77.0586 70.9049 77.0781 70.5898 77.0781C70.0091 77.0781 69.5234 76.9583 69.1328 76.7188C68.7448 76.4766 68.4531 76.1354 68.2578 75.6953C68.0651 75.2552 67.9688 74.7357 67.9688 74.1367C67.9688 73.7044 68.0286 73.3099 68.1484 72.9531C68.2708 72.5938 68.4479 72.2839 68.6797 72.0234C68.9141 71.763 69.2005 71.5625 69.5391 71.4219C69.8802 71.2786 70.2708 71.207 70.7109 71.207C71 71.207 71.2786 71.2357 71.5469 71.293C71.8151 71.3503 72.0573 71.4323 72.2734 71.5391L72.0078 72.1016C71.8255 72.0182 71.625 71.9466 71.4062 71.8867C71.1901 71.8242 70.9557 71.793 70.7031 71.793Z" fill="black"/>
<path d="M1.19531 3.28906H2.8125C3.52604 3.28906 4.0625 3.39583 4.42188 3.60938C4.78125 3.82292 4.96094 4.1862 4.96094 4.69922C4.96094 4.92057 4.91797 5.11979 4.83203 5.29688C4.7487 5.47135 4.6263 5.61589 4.46484 5.73047C4.30339 5.84505 4.10417 5.92448 3.86719 5.96875V6.00781C4.11719 6.04688 4.33854 6.11849 4.53125 6.22266C4.72396 6.32682 4.875 6.47266 4.98438 6.66016C5.09375 6.84766 5.14844 7.08594 5.14844 7.375C5.14844 7.72656 5.06641 8.02344 4.90234 8.26562C4.74089 8.50781 4.51172 8.69141 4.21484 8.81641C3.91797 8.9388 3.56641 9 3.16016 9H1.19531V3.28906ZM1.85938 5.73828H2.95312C3.45052 5.73828 3.79427 5.65625 3.98438 5.49219C4.17708 5.32812 4.27344 5.08854 4.27344 4.77344C4.27344 4.44792 4.15885 4.21354 3.92969 4.07031C3.70312 3.92708 3.34115 3.85547 2.84375 3.85547H1.85938V5.73828ZM1.85938 6.29688V8.43359H3.04688C3.55469 8.43359 3.91406 8.33464 4.125 8.13672C4.33594 7.9362 4.44141 7.66667 4.44141 7.32812C4.44141 7.11198 4.39323 6.92708 4.29688 6.77344C4.20312 6.61979 4.04948 6.5026 3.83594 6.42188C3.625 6.33854 3.34245 6.29688 2.98828 6.29688H1.85938Z" fill="black"/>
<path d="M4.83203 77L4.12891 75.1875H1.83984L1.14062 77H0.46875L2.70312 71.2656H3.30078L5.51953 77H4.83203ZM3.92969 74.5977L3.26172 72.7969C3.24609 72.75 3.22005 72.6732 3.18359 72.5664C3.14974 72.4596 3.11458 72.349 3.07812 72.2344C3.04167 72.1198 3.01172 72.0273 2.98828 71.957C2.96224 72.0638 2.93359 72.1706 2.90234 72.2773C2.8737 72.3815 2.84505 72.4792 2.81641 72.5703C2.78776 72.6589 2.76302 72.7344 2.74219 72.7969L2.0625 74.5977H3.92969Z" fill="black"/>
</svg>
